<?xml version="1.0" standalone="no"?>
<!DOCTYPE svg PUBLIC "-//W3C//DTD SVG 20010904//EN"
 "http://www.w3.org/TR/2001/REC-SVG-20010904/DTD/svg10.dtd">
<svg version="1.0" xmlns="http://www.w3.org/2000/svg"
 width="805.000000pt" height="805.000000pt" viewBox="0 0 805.000000 805.000000"
 preserveAspectRatio="xMidYMid meet">
<metadata>
Created by potrace 1.14, written by Peter Selinger 2001-2017
</metadata>
<g transform="translate(0.000000,805.000000) scale(0.100000,-0.100000)"
fill="#000000" stroke="none">
<path d="M5080 6860 c0 -4 -11 -5 -24 -3 -13 3 -27 0 -30 -6 -4 -6 -18 -11
-32 -11 -14 0 -34 -5 -45 -10 -14 -8 -19 -7 -19 1 0 8 -4 9 -13 0 -8 -6 -17
-8 -20 -4 -4 3 -7 2 -7 -4 0 -6 -15 -9 -35 -6 -19 2 -35 0 -35 -5 0 -4 -22 -8
-49 -7 -27 0 -48 -2 -45 -6 2 -5 -12 -5 -32 -2 -22 4 -35 2 -31 -3 3 -6 -6
-10 -21 -11 -66 -2 -102 -7 -102 -12 0 -4 -8 -7 -17 -8 -44 -3 -63 -8 -63 -16
0 -4 -4 -5 -10 -2 -5 3 -10 1 -10 -5 0 -6 -4 -9 -9 -5 -11 6 -81 -25 -81 -37
0 -4 -5 -8 -11 -8 -14 0 -69 -56 -69 -69 0 -6 -6 -14 -12 -18 -12 -7 -17 -22
-20 -60 -1 -7 -5 -13 -10 -13 -5 0 -6 -4 -3 -10 3 -5 0 -10 -7 -10 -10 0 -10
-2 1 -9 8 -6 10 -14 5 -22 -14 -22 -14 -42 -3 -72 8 -19 15 -24 23 -18 7 6 18
6 26 1 9 -5 20 -5 28 2 8 7 21 13 30 15 64 10 81 16 75 26 -3 6 -1 7 5 3 6 -3
38 4 72 18 33 14 60 22 60 20 0 -3 7 2 16 10 8 9 19 14 24 11 5 -3 10 -2 12 2
3 7 82 53 90 53 2 0 4 -9 4 -20 0 -11 -4 -20 -8 -20 -4 0 -8 -6 -8 -13 0 -8
-11 -20 -25 -27 -14 -7 -25 -19 -25 -26 0 -7 -5 -16 -12 -20 -7 -5 -9 -2 -4 7
5 9 3 8 -6 -2 -7 -8 -21 -18 -30 -22 -10 -3 -18 -11 -18 -17 0 -6 -4 -9 -8 -6
-5 3 -25 -4 -45 -14 -21 -11 -37 -17 -37 -13 0 5 -6 1 -13 -7 -7 -8 -16 -15
-22 -16 -12 0 -65 -14 -85 -21 -8 -4 -21 -5 -29 -4 -8 1 -10 -2 -6 -9 6 -9 2
-9 -14 -1 -11 7 -21 9 -21 6 0 -3 -9 -1 -20 5 -12 6 -20 7 -20 1 0 -5 -12 -7
-27 -3 -36 9 -55 9 -72 -2 -8 -5 -16 -4 -21 4 -6 9 -12 9 -29 1 -11 -7 -21 -8
-21 -3 0 5 -7 9 -15 9 -8 0 -15 -4 -15 -8 0 -4 -13 -4 -29 1 -15 4 -34 5 -40
1 -6 -4 -32 -7 -56 -7 -25 1 -45 -3 -45 -9 0 -5 -4 -4 -9 3 -6 11 -11 10 -25
-3 -9 -9 -16 -11 -16 -5 0 8 -6 8 -21 -1 -14 -7 -19 -7 -15 0 4 6 -6 5 -26 -3
-18 -7 -43 -12 -55 -11 -13 1 -23 -1 -23 -6 0 -4 -9 -6 -20 -4 -11 2 -22 0
-25 -5 -3 -5 -14 -7 -25 -5 -11 2 -20 -1 -20 -6 0 -6 -4 -7 -10 -4 -5 3 -16 3
-22 -1 -11 -7 -27 -11 -65 -16 -7 -1 -13 -5 -13 -10 0 -4 -3 -7 -7 -7 -16 3
-73 -14 -69 -20 2 -3 -9 -7 -26 -7 -17 -1 -34 -7 -38 -13 -4 -7 -10 -12 -14
-12 -3 1 -7 1 -8 0 -2 0 -10 -2 -18 -4 -9 -1 -51 -20 -95 -41 -44 -21 -83 -37
-87 -36 -5 1 -8 -3 -8 -9 0 -5 -4 -7 -10 -4 -5 3 -10 1 -10 -6 0 -7 -3 -10 -6
-6 -4 3 -13 -1 -21 -9 -8 -8 -19 -11 -25 -8 -7 4 -8 2 -4 -5 5 -7 -3 -13 -23
-17 -17 -4 -31 -9 -31 -13 0 -4 -16 -15 -35 -25 -19 -10 -32 -23 -28 -29 3 -6
1 -7 -5 -3 -6 4 -20 -2 -32 -14 -11 -11 -23 -21 -27 -22 -5 -2 -7 -7 -5 -11 1
-5 -2 -6 -7 -3 -5 4 -16 0 -24 -8 -8 -8 -17 -12 -21 -9 -3 4 -6 -1 -6 -11 0
-9 -4 -15 -9 -11 -6 3 -14 -3 -20 -12 -6 -10 -11 -15 -11 -11 0 4 -16 -8 -35
-28 -19 -19 -35 -32 -35 -29 0 3 -6 0 -14 -7 -8 -7 -12 -16 -10 -19 4 -7 -26
-23 -38 -21 -5 1 -8 -5 -8 -13 0 -8 -4 -14 -8 -13 -10 4 -72 -59 -65 -66 3 -2
-5 -9 -16 -16 -12 -6 -19 -15 -16 -21 4 -5 1 -9 -5 -9 -6 0 -18 -7 -26 -15 -9
-8 -13 -15 -10 -15 3 0 -3 -9 -14 -20 -11 -11 -20 -25 -20 -31 0 -5 -4 -7 -10
-4 -5 3 -10 -1 -10 -9 0 -9 -4 -16 -9 -16 -7 0 -59 -70 -96 -129 -5 -9 -13
-18 -17 -21 -3 -3 -8 -12 -10 -20 -2 -8 -11 -23 -20 -34 -10 -10 -15 -23 -12
-28 3 -4 1 -8 -5 -8 -6 0 -18 -17 -28 -37 -9 -21 -21 -41 -25 -44 -5 -3 -10
-16 -11 -27 -1 -12 -4 -22 -8 -22 -4 0 -10 -11 -13 -25 -4 -14 -11 -23 -16
-20 -6 3 -7 -1 -4 -9 3 -9 2 -16 -4 -16 -8 0 -20 -28 -26 -60 -1 -3 -6 -12
-11 -20 -5 -8 -10 -19 -11 -25 -1 -5 -8 -23 -15 -40 -7 -16 -11 -36 -10 -42 1
-7 -3 -13 -9 -13 -6 0 -9 -4 -6 -8 3 -5 -1 -20 -9 -35 -8 -15 -11 -27 -8 -27
3 0 0 -7 -7 -15 -7 -8 -9 -15 -5 -15 4 0 1 -8 -6 -17 -9 -10 -9 -14 -2 -10 8
5 7 -4 -3 -29 -8 -20 -13 -42 -10 -50 3 -7 1 -14 -4 -16 -5 -2 -11 -12 -13
-23 -1 -11 -6 -26 -10 -32 -5 -8 -4 -13 3 -13 6 0 4 -12 -6 -31 -11 -23 -12
-29 -2 -23 10 6 10 4 -1 -9 -7 -9 -10 -17 -7 -17 4 0 2 -9 -4 -20 -8 -14 -8
-20 0 -20 6 0 8 -5 3 -12 -11 -19 -14 -42 -16 -170 -1 -64 1 -114 5 -112 4 2
3 -10 -3 -28 -11 -40 -11 -41 0 -33 6 3 6 -7 0 -27 -11 -40 -11 -41 0 -33 6 3
6 -7 0 -27 -11 -40 -11 -41 0 -33 6 3 6 -7 0 -27 -11 -40 -11 -40 -1 -35 4 3
7 -15 6 -39 0 -24 4 -44 10 -44 6 0 6 -4 -2 -12 -8 -8 -8 -17 -1 -30 6 -11 8
-24 6 -31 -2 -7 3 -21 12 -31 9 -11 10 -16 4 -12 -15 8 -18 -10 -4 -18 5 -4 8
-17 6 -31 -1 -14 1 -25 6 -25 4 0 6 -9 4 -20 -2 -11 1 -20 6 -20 6 0 7 -4 4
-10 -3 -5 0 -10 7 -10 9 0 9 -3 -2 -10 -9 -6 -10 -10 -3 -10 6 0 10 -9 8 -20
-3 -13 0 -18 7 -14 7 5 9 1 5 -9 -3 -10 -2 -17 3 -17 6 0 9 -3 8 -7 -4 -19 15
-83 25 -83 6 0 7 -3 4 -7 -4 -3 0 -17 9 -31 9 -13 11 -21 5 -18 -6 4 -11 2
-11 -3 0 -6 3 -11 8 -11 4 0 12 -11 19 -25 8 -19 8 -25 0 -25 -7 0 -5 -5 3
-10 8 -5 16 -14 16 -20 1 -5 2 -15 3 -21 0 -5 5 -7 11 -4 6 3 7 -1 4 -9 -3 -9
-1 -16 5 -16 6 0 10 -3 10 -7 -1 -8 0 -12 6 -30 2 -5 6 -18 10 -30 4 -13 11
-23 15 -23 5 0 13 -13 19 -30 5 -16 15 -30 21 -30 6 0 10 -6 9 -12 -3 -24 1
-39 9 -35 4 3 18 -17 31 -43 14 -27 28 -47 33 -44 5 3 8 2 7 -3 -4 -22 2 -43
11 -38 6 3 10 -1 10 -9 0 -9 4 -16 9 -16 5 0 14 -14 21 -30 7 -17 22 -37 34
-45 11 -8 17 -15 12 -15 -4 0 2 -9 15 -20 13 -10 20 -19 16 -20 -5 0 23 -31
62 -69 39 -38 71 -73 71 -78 0 -11 43 -48 53 -45 4 1 7 -3 7 -9 0 -16 41 -50
51 -43 5 3 9 2 9 -3 0 -12 46 -63 57 -63 5 0 29 -18 53 -40 25 -22 50 -40 56
-40 6 0 19 -9 29 -20 10 -11 23 -20 28 -20 5 0 16 -8 24 -18 10 -11 12 -12 8
-2 -4 8 3 5 14 -8 11 -13 25 -21 31 -17 5 3 10 -2 10 -11 0 -10 3 -15 6 -11 4
3 13 -1 21 -9 8 -8 19 -12 24 -9 5 4 9 1 9 -4 0 -6 6 -11 13 -11 7 0 23 -9 34
-19 12 -11 24 -17 27 -14 3 4 15 -2 27 -13 12 -10 24 -19 28 -18 14 2 41 -9
41 -17 0 -5 7 -6 15 -3 8 4 15 1 15 -6 0 -6 4 -9 9 -5 5 3 12 1 16 -5 4 -6 11
-8 16 -5 5 4 9 2 9 -3 0 -6 7 -13 16 -16 8 -3 12 -2 9 4 -3 6 1 7 9 4 9 -3 16
-10 16 -16 0 -5 5 -6 10 -3 6 3 10 2 10 -4 0 -6 7 -8 15 -5 8 4 15 1 15 -6 0
-7 8 -10 20 -7 11 3 20 0 20 -6 0 -6 3 -7 7 -4 3 4 12 2 20 -4 7 -6 13 -8 13
-3 0 5 5 2 10 -6 8 -12 10 -12 10 -1 0 11 3 11 16 1 13 -12 39 -19 82 -22 6
-1 12 -4 12 -8 0 -4 6 -7 13 -8 13 -1 63 -8 117 -17 19 -3 43 -6 53 -6 11 0
15 -5 10 -12 -4 -7 0 -6 10 2 13 10 17 10 17 1 0 -10 3 -10 15 0 8 7 15 8 15
3 0 -5 10 -10 23 -10 12 -1 43 -4 69 -6 32 -3 46 -1 41 6 -4 6 -1 7 6 2 18
-11 170 -12 164 -1 -4 5 -1 6 4 3 19 -12 84 -17 78 -7 -4 6 3 6 19 0 18 -6 26
-6 26 1 0 6 4 7 10 4 5 -3 18 -1 28 4 13 7 22 7 30 -1 8 -8 15 -8 26 2 9 7 29
10 46 8 16 -3 30 -1 30 3 0 4 7 10 16 13 10 4 13 2 8 -6 -5 -8 -2 -9 12 -4 10
4 24 9 31 10 7 1 15 5 19 8 3 4 13 4 22 1 11 -5 13 -3 7 8 -7 12 -6 12 7 1 11
-9 18 -10 23 -2 3 5 19 10 35 10 16 0 31 4 35 10 3 5 13 6 22 3 10 -4 14 -2
10 4 -3 5 3 9 16 8 12 -1 25 2 28 7 3 5 12 10 20 11 8 2 20 7 28 11 10 7 12 6
6 -4 -5 -8 7 -3 25 10 18 13 30 17 25 9 -7 -11 -6 -12 7 -2 8 7 18 10 21 6 4
-3 7 -1 7 6 0 7 4 10 9 6 5 -3 15 0 23 7 7 7 22 15 33 16 11 2 22 8 25 13 3 5
15 10 25 12 11 2 31 9 45 17 14 8 29 14 33 15 4 0 12 7 17 15 5 8 10 11 10 7
0 -5 13 1 29 12 15 11 31 18 35 14 3 -3 6 -1 6 5 0 7 7 12 16 12 8 0 12 5 9
10 -4 6 -3 10 2 9 17 -4 63 14 57 22 -3 5 5 9 16 9 13 0 24 8 27 20 3 11 9 17
14 15 9 -6 50 30 43 39 -2 3 -1 4 2 1 7 -5 84 32 84 41 0 3 -6 2 -12 -2 -10
-6 -10 -4 0 8 7 9 24 19 38 22 14 4 22 11 19 16 -3 6 -2 10 3 10 6 0 27 16 48
35 22 19 42 35 46 35 4 0 10 9 13 20 3 11 10 20 15 20 12 0 80 68 80 80 0 6 3
9 8 7 11 -7 41 38 33 51 -11 18 -56 -10 -59 -38 -5 -34 -16 -43 -51 -42 -32 1
-49 -12 -31 -23 5 -3 -6 -20 -25 -36 -19 -17 -32 -35 -29 -40 3 -5 2 -9 -3 -8
-4 2 -21 -4 -36 -11 -19 -9 -26 -19 -22 -29 5 -13 4 -13 -6 -4 -10 10 -17 7
-36 -13 -12 -14 -23 -22 -23 -18 0 4 -7 -1 -16 -12 -8 -10 -13 -13 -9 -6 3 6
1 12 -4 12 -6 0 -11 -4 -11 -9 0 -5 -12 -16 -27 -24 -69 -35 -98 -53 -101 -60
-2 -4 -8 -5 -13 -1 -5 3 -9 0 -9 -5 0 -6 -3 -10 -7 -9 -5 1 -21 -4 -36 -10
-18 -8 -26 -16 -21 -24 6 -10 5 -10 -7 -1 -11 9 -18 8 -33 -3 -10 -7 -23 -11
-29 -7 -6 3 -7 1 -3 -5 4 -7 0 -12 -11 -13 -32 -2 -38 -4 -60 -17 -12 -7 -26
-11 -30 -11 -4 1 -16 -1 -26 -4 -24 -10 -41 -14 -50 -15 -4 0 -20 -8 -34 -17
-17 -12 -23 -13 -17 -4 6 12 5 12 -9 0 -9 -7 -17 -10 -17 -5 0 4 -5 3 -11 -3
-6 -6 -18 -9 -25 -6 -8 3 -14 1 -14 -5 0 -5 -12 -9 -27 -10 -16 0 -30 -1 -33
-2 -23 -8 -105 -20 -155 -23 -22 -1 -46 -9 -53 -17 -8 -8 -11 -10 -8 -4 4 7
-8 11 -34 11 -24 0 -37 -4 -33 -10 3 -6 1 -7 -6 -3 -22 14 -83 17 -75 5 4 -8
3 -9 -4 -5 -23 14 -56 16 -64 3 -5 -8 -8 -6 -8 8 0 15 -2 17 -9 6 -6 -10 -22
-12 -55 -8 -32 4 -46 2 -46 -6 0 -7 -4 -6 -10 3 -9 13 -11 13 -20 0 -7 -12
-10 -12 -10 -1 0 7 -6 11 -15 7 -8 -3 -15 -1 -15 4 0 6 -16 7 -36 4 -28 -4
-34 -3 -28 8 6 11 5 11 -8 0 -13 -10 -17 -10 -22 4 -5 12 -10 13 -19 6 -8 -7
-18 -7 -27 -2 -9 6 -17 5 -22 -3 -6 -9 -8 -9 -8 1 0 7 -4 10 -10 7 -5 -3 -10
-2 -10 4 0 5 -8 8 -17 6 -10 -1 -22 1 -28 5 -9 7 -27 10 -67 11 -10 0 -18 4
-18 10 0 5 -16 9 -35 9 -19 0 -35 5 -35 10 0 6 -13 10 -30 10 -16 0 -30 5 -30
11 0 6 -9 9 -20 6 -11 -3 -20 -1 -20 5 0 5 -5 6 -10 3 -5 -3 -10 -1 -10 5 0 6
-4 9 -9 5 -5 -3 -16 2 -24 10 -9 8 -23 15 -31 15 -9 0 -16 5 -16 10 0 6 -9 10
-20 10 -11 0 -20 5 -20 11 0 5 -5 7 -10 4 -6 -4 -27 3 -46 14 -19 12 -32 15
-29 9 4 -7 0 -5 -8 4 -8 10 -17 15 -20 11 -4 -3 -7 -1 -7 5 0 7 -5 12 -11 12
-7 0 -18 8 -26 18 -8 9 -11 10 -7 3 5 -9 -5 -6 -23 7 -17 12 -36 22 -42 22 -6
0 -11 4 -11 8 0 5 -12 15 -27 23 -31 16 -45 25 -74 52 -10 9 -19 14 -19 10 0
-5 -15 9 -33 30 -19 20 -39 37 -46 37 -7 0 -9 5 -6 10 4 6 3 10 -2 9 -19 -3
-46 1 -40 7 7 8 -17 34 -32 34 -6 0 -11 4 -11 9 0 14 -78 90 -84 83 -3 -3 -6
2 -6 12 0 9 -4 14 -10 11 -5 -3 -10 0 -10 8 0 8 -10 19 -22 25 -13 6 -17 11
-10 11 12 1 -21 41 -34 41 -9 0 -34 28 -34 39 0 5 -8 15 -17 20 -10 6 -15 11
-11 11 4 0 -4 12 -18 28 -14 15 -32 34 -40 43 -8 9 -14 21 -14 27 0 7 -4 12
-10 12 -5 0 -10 7 -10 15 0 8 -4 15 -10 15 -5 0 -10 7 -10 15 0 8 -5 15 -11
15 -5 0 -8 4 -5 9 3 5 -1 11 -9 15 -8 3 -15 14 -15 25 0 11 -4 23 -10 26 -5 3
-10 13 -10 21 0 9 -7 22 -15 31 -8 8 -13 19 -10 24 4 5 1 9 -4 9 -6 0 -11 7
-11 15 0 9 -9 25 -20 37 -11 12 -20 28 -20 35 0 7 -5 13 -12 13 -6 0 -9 3 -5
6 3 4 -2 23 -13 44 -11 21 -16 40 -13 44 4 3 0 6 -7 6 -7 0 -11 3 -7 6 3 4 0
19 -8 34 -8 15 -11 30 -8 34 4 3 1 6 -4 6 -6 0 -10 8 -8 18 1 9 -2 22 -7 29
-5 6 -11 22 -12 35 -3 21 -6 32 -25 83 -4 11 -7 31 -7 45 1 14 -2 28 -6 31 -5
3 -9 18 -10 35 -1 16 -7 32 -13 36 -7 5 -6 8 2 8 6 0 9 9 6 20 -3 11 -10 20
-15 20 -5 0 -6 6 -1 13 11 18 12 37 2 37 -6 0 -7 4 -4 10 3 5 1 19 -5 30 -8
14 -8 20 0 20 7 0 7 7 -1 21 -8 16 -8 23 1 29 9 6 9 9 -1 13 -8 3 -9 6 -2 6
12 1 6 41 -6 41 -8 0 -7 47 1 55 3 3 2 21 -2 39 -4 19 -4 40 1 47 5 8 3 17 -4
21 -9 6 -9 10 2 17 8 5 11 16 8 25 -4 9 -2 16 2 16 5 0 5 16 1 34 -5 23 -3 43
6 60 7 15 10 26 6 26 -4 0 -7 11 -7 25 0 14 4 25 9 25 4 0 6 11 4 25 -3 14 -2
25 1 25 4 0 8 10 9 23 3 54 14 102 25 116 10 12 9 13 -3 6 -12 -7 -13 -6 -3 6
6 8 14 26 16 39 2 14 9 36 14 50 6 14 9 28 6 33 -2 4 0 7 6 7 5 0 8 8 6 18 -1
9 5 26 14 36 10 12 11 16 2 11 -9 -5 -7 1 4 19 10 14 14 26 10 26 -4 0 -2 7 5
15 7 9 10 18 7 21 -3 4 2 15 13 26 10 11 17 27 16 36 -2 9 6 25 16 36 10 11
16 26 14 33 -3 7 1 13 9 13 8 0 14 3 13 8 -1 4 3 17 10 30 7 12 10 28 6 34 -4
7 -3 8 5 4 7 -5 13 4 17 24 4 17 9 28 12 25 8 -8 32 46 25 58 -3 6 -1 7 6 3 7
-5 17 5 26 26 8 18 15 29 15 23 0 -5 5 -2 11 8 5 9 7 22 3 29 -4 7 -3 8 4 4 7
-4 12 -3 12 3 0 6 11 22 26 36 14 14 22 30 19 35 -3 6 2 10 11 10 10 0 15 3
12 6 -3 3 5 16 19 30 13 13 21 29 18 34 -4 6 1 7 11 3 11 -4 15 -3 10 5 -3 6
3 13 14 17 11 4 18 10 16 13 -2 4 2 16 10 27 8 10 14 15 14 11 0 -4 19 14 41
41 51 58 54 62 45 43 -4 -8 1 -6 11 5 10 11 31 30 47 43 16 12 25 22 21 22 -4
0 12 14 36 32 24 17 46 35 47 40 2 4 10 8 17 8 8 0 20 9 28 20 8 11 17 17 20
14 4 -4 9 1 13 10 3 9 10 14 14 11 4 -3 11 2 14 11 3 8 10 12 16 9 6 -3 13 1
16 9 3 9 10 14 14 11 4 -3 11 2 14 11 3 8 10 13 15 10 5 -3 14 1 21 9 7 8 19
15 26 15 8 0 14 5 14 10 0 6 3 9 8 8 4 -1 23 6 42 17 19 11 40 20 45 20 6 1 9
7 7 14 -1 7 2 10 8 6 6 -4 18 -1 26 6 8 6 17 9 20 6 4 -3 15 4 26 16 11 12 17
16 13 10 -3 -7 -1 -13 4 -13 6 0 11 5 11 11 0 6 7 9 15 5 8 -3 15 -1 15 4 0 6
9 10 21 10 11 0 17 4 14 10 -3 6 1 7 9 4 9 -3 16 -2 16 3 0 9 6 11 50 15 11 1
20 5 20 9 0 7 78 25 93 21 4 -1 7 3 7 9 0 5 5 7 10 4 6 -3 10 -2 10 3 0 5 11
7 23 5 14 -3 31 2 40 12 11 10 17 12 17 4 0 -7 4 -8 13 -2 6 5 22 8 35 7 12 0
22 2 22 7 0 4 14 6 30 4 17 -2 30 0 30 5 0 5 7 7 15 4 8 -4 22 -1 30 6 12 10
15 10 15 0 0 -8 6 -9 18 -4 31 13 146 14 154 1 5 -8 8 -6 8 7 0 15 3 16 14 7
11 -9 15 -9 19 1 3 7 6 8 6 3 1 -6 24 -9 53 -8 33 2 55 -2 60 -10 5 -8 8 -6 8
7 0 15 3 16 14 7 11 -9 15 -9 19 1 4 8 6 9 6 1 1 -6 10 -9 21 -6 11 3 26 0 33
-6 8 -6 17 -8 20 -4 10 9 66 10 60 1 -3 -7 55 -13 80 -9 4 0 7 -3 7 -9 0 -6 3
-9 8 -9 25 4 32 -3 26 -28 -11 -55 -12 -73 -3 -73 6 0 8 -4 5 -9 -4 -5 0 -12
6 -14 9 -4 9 -6 -1 -6 -11 -1 -10 -5 5 -17 10 -8 12 -12 4 -8 -8 4 3 -12 25
-34 22 -23 45 -41 51 -42 7 0 14 -7 18 -15 3 -8 17 -15 31 -15 15 0 24 -4 20
-10 -5 -9 15 -15 38 -11 4 0 7 -3 7 -7 0 -5 18 -15 40 -22 21 -7 37 -17 34
-21 -2 -4 5 -6 16 -4 12 2 23 -2 27 -10 3 -8 9 -12 14 -9 5 3 12 -1 15 -10 3
-8 11 -13 19 -10 7 3 15 -2 19 -11 5 -13 8 -14 20 -3 8 7 11 18 6 23 -4 6 -7
22 -6 37 1 16 -5 30 -12 33 -11 4 -11 9 -3 19 6 7 8 16 4 20 -4 3 -8 16 -10
28 -2 12 -8 25 -15 29 -6 4 -7 12 -4 18 4 6 1 14 -8 17 -8 3 -13 14 -11 23 2
10 -8 30 -21 44 -13 14 -24 29 -24 33 0 14 -95 94 -107 90 -6 -3 -13 0 -15 5
-2 6 -10 11 -18 13 -8 2 -22 6 -30 9 -8 3 -27 7 -42 10 -23 3 -26 1 -18 -12 5
-10 4 -22 -3 -31 -14 -18 -37 -24 -37 -10 0 6 -9 10 -20 10 -12 0 -20 7 -20
16 0 12 -6 15 -26 10 -16 -4 -32 -2 -42 6 -13 11 -15 11 -7 -2 6 -12 5 -13 -5
-3 -14 13 -24 46 -11 39 4 -3 32 8 63 24 31 16 59 26 62 23 3 -4 6 1 6 11 0 9
3 15 8 13 10 -7 32 19 24 27 -3 4 1 4 11 0 10 -3 17 -1 17 6 0 6 5 8 10 5 6
-3 10 1 10 9 0 9 7 16 15 16 8 0 15 4 15 10 0 15 33 50 42 44 4 -3 8 1 8 9 0
7 10 24 23 37 12 14 21 28 20 32 -2 5 2 8 7 8 6 0 18 16 27 35 9 19 20 35 24
35 4 0 10 11 13 25 4 14 11 25 17 25 6 0 8 4 4 9 -3 5 2 17 11 25 8 9 13 16 9
16 -3 0 1 10 10 23 8 13 12 27 8 30 -3 4 0 7 7 7 7 0 10 3 7 7 -4 3 1 15 10
26 13 15 14 18 3 12 -12 -6 -13 -5 -2 6 16 17 15 26 -3 26 -8 0 -15 -3 -15 -7z
m500 -4324 c0 -2 -8 -10 -17 -17 -16 -13 -17 -12 -4 4 13 16 21 21 21 13z"/>
<path d="M4779 5177 c-8 -23 -4 -37 12 -42 10 -4 19 -11 19 -16 0 -5 11 -22
25 -37 14 -15 28 -37 31 -49 4 -13 10 -23 15 -23 5 0 9 -9 9 -19 0 -11 5 -23
10 -26 6 -4 8 -11 5 -16 -4 -5 -1 -9 5 -9 6 0 8 -5 4 -11 -3 -6 -1 -14 5 -18
6 -4 12 -40 13 -83 2 -42 6 -74 9 -72 3 2 6 -3 6 -11 0 -8 -3 -12 -6 -11 -3 2
-7 -21 -7 -51 -1 -31 -6 -58 -11 -62 -5 -3 -8 -13 -8 -21 1 -8 -1 -19 -4 -25
-6 -11 -12 -33 -13 -52 -1 -7 -5 -13 -10 -13 -5 0 -6 -4 -3 -10 3 -5 1 -10 -5
-10 -6 0 -8 -4 -5 -10 3 -5 1 -10 -5 -10 -6 0 -8 -4 -5 -10 3 -5 1 -10 -5 -10
-6 0 -8 -5 -5 -10 3 -6 -1 -13 -9 -16 -9 -3 -14 -10 -11 -14 3 -5 1 -11 -5
-15 -6 -4 -8 -11 -5 -16 4 -5 1 -9 -6 -9 -7 0 -9 -3 -6 -7 4 -3 0 -15 -10 -25
-9 -10 -13 -18 -10 -18 3 0 -5 -12 -18 -26 -14 -15 -22 -30 -19 -35 3 -5 0 -9
-5 -9 -6 0 -11 -5 -11 -11 0 -6 -7 -17 -15 -26 -8 -8 -12 -19 -9 -25 4 -6 2
-8 -3 -5 -6 4 -18 -4 -27 -18 -9 -14 -13 -25 -10 -25 4 0 -8 -15 -27 -32 -19
-18 -33 -34 -31 -35 6 -7 1 -24 -6 -19 -4 3 -16 -11 -27 -30 -10 -19 -22 -34
-27 -34 -5 0 -12 -8 -15 -17 -10 -28 -40 -63 -47 -56 -3 3 -6 0 -6 -7 0 -7 -8
-19 -17 -27 -10 -8 -12 -11 -5 -8 11 6 11 3 1 -13 -7 -12 -16 -19 -19 -17 -4
2 -14 -11 -23 -30 -9 -19 -22 -35 -27 -35 -6 0 -9 -4 -5 -9 3 -5 -4 -13 -16
-16 -17 -6 -19 -9 -8 -16 11 -7 10 -9 -4 -9 -10 0 -16 -4 -13 -9 3 -5 -1 -12
-10 -15 -9 -4 -14 -9 -11 -12 3 -4 -1 -13 -9 -21 -8 -8 -12 -19 -9 -24 4 -5
-1 -6 -10 -3 -9 4 -15 3 -13 -2 4 -15 -38 -74 -47 -66 -5 4 -5 2 -1 -5 3 -6 2
-14 -4 -18 -6 -4 -8 -11 -5 -16 4 -5 -1 -9 -9 -9 -9 0 -15 -3 -15 -7 3 -21 -2
-33 -13 -27 -8 5 -9 0 -6 -14 4 -12 2 -20 -3 -16 -5 3 -9 -2 -9 -10 0 -9 -5
-16 -11 -16 -5 0 -7 -4 -4 -10 3 -5 1 -10 -6 -10 -7 0 -9 -3 -6 -7 4 -3 -1
-12 -11 -20 -9 -8 -10 -11 -3 -7 9 4 6 -6 -8 -24 -12 -18 -19 -37 -15 -43 4
-8 3 -9 -4 -5 -7 4 -16 -9 -23 -34 -7 -22 -15 -40 -19 -40 -4 0 -7 -7 -8 -15
-1 -8 -3 -22 -4 -30 -1 -8 -6 -15 -11 -15 -5 0 -7 -9 -4 -20 3 -11 0 -23 -6
-28 -7 -4 -13 -16 -15 -27 -1 -11 -5 -30 -7 -43 -2 -12 -6 -32 -9 -45 -2 -12
-7 -30 -11 -39 -5 -12 -3 -18 6 -18 12 0 12 -2 1 -9 -17 -11 -17 -21 0 -32 7
-5 8 -9 2 -9 -12 0 -13 -59 -1 -77 4 -6 3 -14 -3 -18 -11 -7 -8 -34 9 -78 14
-35 14 -40 1 -32 -6 3 -7 -1 -4 -9 3 -9 9 -16 13 -16 4 0 8 -8 9 -17 4 -43 9
-57 20 -61 7 -2 10 -8 6 -13 -6 -11 26 -89 38 -89 4 0 7 -4 6 -9 -2 -5 3 -18
9 -28 35 -51 59 -91 72 -115 8 -15 18 -25 23 -22 4 3 8 -2 8 -11 0 -12 7 -15
25 -13 14 2 24 6 23 10 -4 10 44 44 56 40 5 -2 6 4 3 13 -4 9 -1 15 8 15 8 0
28 13 44 29 16 16 33 26 36 23 4 -4 6 -2 5 3 -4 18 0 35 8 33 4 -2 53 43 109
100 56 56 100 102 97 102 -2 0 1 6 8 14 7 8 16 12 21 9 4 -2 6 -1 5 4 -3 9 46
75 88 119 12 13 20 25 17 28 -3 2 5 9 16 16 12 6 19 15 16 21 -4 5 1 12 9 15
9 3 14 9 11 13 -2 4 5 14 16 21 10 8 19 19 19 25 0 6 9 21 20 33 12 12 17 22
13 22 -4 0 2 7 13 16 10 8 12 12 4 8 -9 -4 -6 3 6 17 12 13 25 34 29 47 3 12
11 19 17 16 7 -5 9 0 6 14 -4 12 -2 22 2 22 9 0 31 36 51 83 6 15 16 27 22 27
6 0 7 3 4 7 -4 3 -2 12 4 20 6 7 8 13 4 13 -5 0 0 10 11 22 13 14 14 19 4 14
-8 -4 -6 0 4 8 11 9 16 16 12 16 -5 0 -3 7 4 15 6 8 9 19 5 25 -3 5 -1 10 4
10 6 0 11 6 11 13 0 6 6 24 14 38 14 28 30 80 28 92 -1 4 3 7 9 7 7 0 9 9 6
21 -4 14 -2 19 7 16 9 -4 11 2 8 18 -2 12 1 26 7 29 5 4 8 13 4 21 -3 8 -1 15
4 15 9 0 11 12 16 79 1 16 5 27 10 24 4 -2 8 -1 8 4 1 4 3 21 5 37 4 37 15 48
34 35 12 -9 11 -10 -4 -5 -15 5 -17 4 -7 -8 6 -7 8 -22 4 -31 -4 -13 -3 -16 6
-10 10 6 11 3 1 -14 -8 -17 -8 -26 0 -36 7 -8 7 -15 1 -19 -11 -7 -9 -25 3
-45 6 -9 5 -12 -2 -7 -7 4 -11 -5 -10 -26 0 -18 -3 -58 -6 -88 -4 -30 -8 -70
-9 -87 -1 -18 -4 -33 -7 -33 -3 0 -6 -8 -7 -17 -1 -17 -7 -51 -18 -103 -3 -14
-6 -31 -7 -37 -1 -7 -4 -13 -8 -13 -4 0 -6 -10 -5 -22 1 -13 -5 -29 -14 -36
-9 -8 -10 -11 -3 -7 6 3 12 1 12 -4 0 -6 -5 -11 -11 -11 -6 0 -9 -7 -6 -15 4
-8 1 -17 -4 -21 -6 -3 -9 -15 -6 -25 3 -11 1 -17 -4 -13 -9 5 -12 -4 -12 -38
0 -9 -4 -16 -10 -15 -8 2 -16 -19 -19 -50 -1 -7 -6 -13 -11 -13 -5 0 -7 -9 -4
-20 3 -11 1 -18 -3 -15 -4 3 -13 -9 -19 -26 -7 -21 -15 -28 -23 -23 -9 6 -9 3
1 -9 9 -11 10 -17 2 -17 -6 0 -11 -7 -11 -15 0 -8 -4 -15 -10 -15 -5 0 -6 -7
-3 -17 4 -11 3 -14 -5 -9 -7 4 -12 1 -12 -6 0 -8 -13 -35 -30 -61 -16 -26 -27
-47 -24 -47 3 0 -1 -7 -8 -15 -30 -33 -38 -45 -38 -55 0 -5 -4 -10 -10 -10 -5
0 -10 -6 -10 -13 0 -12 -9 -26 -50 -74 -6 -7 -11 -16 -12 -20 -3 -11 -29 -42
-50 -61 -9 -9 -15 -19 -12 -24 3 -4 0 -8 -6 -8 -6 0 -8 -4 -5 -10 3 -5 0 -10
-8 -10 -7 0 -20 -12 -27 -26 -8 -14 -27 -35 -42 -46 -15 -10 -28 -24 -28 -29
0 -6 -30 -40 -67 -77 -51 -51 -63 -68 -50 -70 10 -2 25 2 34 10 14 11 16 11 9
0 -7 -11 -4 -12 13 -3 11 7 21 9 21 5 0 -3 7 -1 15 6 8 7 15 9 15 5 0 -4 8 -1
17 6 10 8 14 9 10 2 -5 -7 4 -6 23 3 16 8 39 16 50 17 11 1 20 6 20 11 0 5 3
7 6 4 11 -11 94 23 87 35 -4 7 1 6 10 -2 14 -11 18 -11 23 3 3 9 10 13 15 11
5 -3 21 1 37 9 16 8 32 12 36 9 3 -4 6 -1 6 6 0 7 5 9 10 6 6 -3 10 -1 10 4 0
6 9 11 19 11 11 0 26 6 33 13 7 8 19 12 26 9 6 -2 12 1 12 6 0 9 37 25 53 23
4 -1 7 3 7 8 0 5 14 14 31 20 19 7 28 15 23 22 -5 8 -3 9 5 5 7 -5 21 0 32 10
10 9 19 13 19 8 0 -5 5 -1 11 9 6 9 14 15 20 12 5 -4 9 -1 9 4 0 6 7 11 15 11
8 0 15 5 15 10 0 6 11 15 25 22 13 6 22 15 19 19 -3 5 2 9 11 9 10 0 30 14 46
31 16 17 29 28 29 25 0 -3 18 13 40 35 22 23 40 46 40 51 0 5 4 7 8 4 5 -3 22
11 38 32 16 20 37 44 47 54 9 10 17 22 17 28 0 5 9 14 20 20 11 6 18 15 15 21
-4 5 -1 9 4 9 6 0 11 7 11 15 0 8 7 15 15 15 9 0 12 6 9 15 -4 9 1 18 11 21 9
4 14 13 11 20 -3 8 -2 14 2 14 9 0 57 91 54 103 -1 4 3 7 9 7 5 0 8 4 4 9 -3
5 -1 12 5 16 6 4 8 11 5 16 -4 5 -1 9 4 9 6 0 10 3 9 8 -2 12 14 66 24 79 5 7
7 17 3 23 -3 5 1 13 10 16 12 5 13 9 5 14 -8 5 -7 11 4 22 11 11 12 18 3 27
-8 8 -8 11 2 11 11 0 11 3 0 17 -10 11 -10 14 -1 9 6 -4 12 -6 13 -4 0 2 3 26
6 53 3 28 10 56 15 63 7 8 7 12 -1 12 -8 0 -9 5 -1 19 7 13 7 22 0 26 -7 4 -7
12 0 24 5 10 6 21 3 25 -3 3 -1 6 6 6 9 0 9 5 1 20 -8 14 -8 20 0 20 6 0 8 5
3 12 -4 7 -6 26 -4 41 1 15 -2 33 -7 40 -13 16 -11 47 2 47 7 0 7 3 1 8 -14
10 -17 32 -5 32 6 0 5 9 -3 23 -7 12 -13 41 -13 64 1 22 -3 39 -8 35 -5 -3 -7
2 -3 10 3 9 0 21 -6 27 -6 6 -7 11 -1 11 5 0 2 5 -6 10 -12 8 -12 10 -1 10 10
0 10 5 -3 25 -12 18 -13 25 -4 25 10 0 10 2 0 9 -8 4 -12 14 -11 22 2 8 -4 28
-14 45 -9 17 -13 34 -10 38 4 3 1 6 -5 6 -6 0 -9 6 -6 14 3 8 1 17 -5 21 -6 3
-11 15 -11 26 0 10 -4 19 -10 19 -5 0 -10 12 -10 26 0 14 -4 22 -10 19 -6 -3
-7 1 -4 9 3 9 1 16 -6 16 -6 0 -8 5 -5 10 3 6 1 10 -5 10 -6 0 -8 5 -5 10 3 6
0 12 -7 15 -8 3 -15 15 -15 27 -1 12 -6 24 -11 27 -4 3 -14 21 -21 39 -8 17
-17 32 -21 32 -5 0 -14 16 -20 35 -6 19 -20 37 -30 40 -11 4 -17 12 -13 20 3
8 -2 18 -11 21 -9 3 -16 12 -16 20 0 7 -8 18 -17 23 -10 6 -14 11 -10 11 13 0
-20 30 -33 30 -6 0 -9 4 -6 8 6 11 -59 84 -67 75 -4 -3 -7 -1 -7 6 0 16 -26
42 -34 34 -3 -4 -6 -1 -6 5 0 15 -36 52 -51 52 -5 0 -8 4 -5 9 4 5 -7 15 -23
22 -16 7 -27 17 -25 21 3 5 -8 14 -25 21 -17 7 -28 16 -24 20 3 4 -1 7 -10 7
-9 0 -17 4 -17 9 0 5 -13 14 -30 21 -16 7 -30 16 -30 20 0 4 -8 10 -17 14 -22
7 -77 39 -100 57 -9 8 -14 9 -10 3 3 -6 -11 -2 -33 8 -22 11 -40 23 -40 27 0
3 -11 7 -24 7 -14 1 -38 9 -55 17 -20 10 -31 12 -31 4 0 -6 -7 -2 -16 9 -8 10
-12 12 -8 4 6 -12 5 -13 -7 -4 -14 11 -48 25 -50 21z"/>
<path d="M2980 5081 c0 -4 -9 -8 -20 -9 -44 -4 -50 -6 -50 -15 0 -6 -3 -7 -7
-4 -3 4 -12 2 -20 -4 -7 -6 -13 -8 -13 -5 0 4 -6 2 -12 -4 -7 -6 -30 -24 -52
-40 -21 -17 -35 -30 -30 -30 5 0 1 -5 -9 -11 -9 -6 -15 -14 -12 -20 4 -5 -1
-12 -9 -15 -9 -3 -14 -9 -11 -13 2 -4 -3 -20 -11 -36 -8 -16 -12 -35 -10 -42
3 -7 1 -13 -4 -13 -5 0 -7 -7 -4 -15 4 -9 0 -15 -7 -15 -9 0 -10 -3 -4 -8 6
-4 11 -18 12 -32 2 -32 7 -48 23 -85 8 -16 14 -35 15 -41 0 -7 9 -20 21 -30
11 -11 13 -14 4 -9 -13 9 -13 8 -1 -8 8 -10 20 -16 28 -13 8 3 11 2 8 -3 -7
-12 56 -61 78 -61 10 0 17 -5 17 -11 0 -6 7 -9 15 -5 8 3 21 -2 30 -10 8 -9
15 -11 15 -5 0 7 8 7 23 2 14 -5 30 -5 40 0 12 7 17 6 17 -3 0 -9 3 -9 11 -1
6 6 17 9 24 6 8 -2 24 3 37 11 14 9 28 13 31 9 4 -3 7 -1 7 6 0 7 4 10 9 6 6
-3 14 2 19 11 5 9 13 17 18 17 5 1 8 5 6 10 -1 4 1 6 5 5 12 -4 48 25 51 41 1
7 9 20 17 28 9 8 13 19 10 24 -4 5 -1 9 5 9 6 0 8 5 5 10 -3 6 -1 10 5 10 7 0
10 7 6 15 -3 8 -1 15 4 15 5 0 7 7 4 15 -4 9 0 15 7 15 11 0 11 3 -1 10 -8 5
-10 10 -4 10 5 0 10 11 10 25 0 14 -5 25 -10 25 -6 0 -4 5 4 10 10 6 11 10 3
10 -7 0 -13 9 -13 19 0 11 -4 30 -9 43 -5 13 -8 25 -8 28 3 18 -114 132 -130
125 -7 -2 -12 1 -10 7 1 7 -7 12 -18 12 -11 0 -22 3 -25 7 -7 9 -130 28 -130
20z"/>
<path d="M4370 4791 c0 -5 -10 -13 -22 -17 -12 -3 -29 -13 -36 -21 -11 -11
-17 -11 -22 -3 -6 9 -9 9 -14 1 -4 -6 -12 -9 -17 -6 -5 4 -9 0 -9 -7 0 -9 -3
-9 -10 2 -5 8 -10 10 -10 4 0 -6 -10 -10 -22 -10 -13 1 -28 -1 -33 -5 -6 -4
-24 -9 -40 -11 -17 -2 -36 -10 -43 -18 -8 -8 -11 -9 -7 -2 3 6 1 12 -4 12 -6
0 -11 -4 -11 -8 0 -5 -7 -9 -15 -10 -8 -1 -22 -3 -30 -4 -8 -1 -15 -6 -15 -12
0 -6 -5 -4 -10 4 -6 9 -10 10 -10 3 0 -11 -60 -33 -84 -32 -5 0 -12 -5 -17
-12 -4 -7 -16 -14 -26 -15 -9 -2 -19 -8 -21 -14 -3 -8 -8 -8 -18 1 -11 9 -15
8 -20 -5 -3 -9 -10 -13 -15 -10 -5 3 -12 -2 -15 -10 -3 -9 -10 -14 -14 -11 -5
3 -11 1 -15 -5 -4 -6 -11 -8 -16 -5 -5 4 -9 1 -9 -4 0 -6 -18 -18 -40 -27 -22
-9 -40 -21 -40 -27 0 -6 -3 -7 -7 -4 -3 4 -11 0 -17 -8 -6 -7 -18 -15 -26 -17
-8 -2 -25 -13 -36 -25 -12 -12 -25 -19 -28 -16 -3 3 -8 -2 -12 -11 -3 -9 -10
-14 -14 -11 -4 2 -20 -7 -34 -20 -15 -14 -32 -25 -37 -25 -6 0 -7 -4 -4 -10 3
-5 -6 -12 -20 -16 -14 -3 -25 -13 -25 -21 0 -8 -4 -11 -10 -8 -5 3 -10 -1 -10
-10 0 -9 -4 -14 -9 -11 -5 3 -12 -1 -15 -10 -4 -9 -9 -14 -13 -11 -3 4 -17 -8
-30 -25 -12 -18 -23 -28 -23 -23 0 5 -11 -6 -25 -25 -14 -19 -25 -31 -25 -27
0 4 -6 2 -14 -5 -8 -7 -12 -15 -10 -17 2 -2 -7 -12 -19 -23 -12 -11 -15 -16
-7 -12 13 7 13 5 2 -9 -8 -9 -17 -15 -20 -14 -4 1 -9 -2 -11 -8 -3 -5 -15 -18
-27 -28 -13 -10 -26 -26 -29 -37 -4 -11 -11 -18 -16 -15 -5 4 -9 -3 -9 -15 0
-12 -4 -19 -9 -16 -8 6 -23 -16 -26 -39 0 -5 -6 -9 -13 -8 -7 2 -12 -3 -12
-11 0 -8 -9 -21 -21 -29 -11 -8 -21 -24 -22 -35 0 -11 -4 -19 -8 -16 -4 2 -10
-5 -14 -16 -3 -11 -11 -20 -16 -20 -6 0 -8 -4 -5 -9 12 -19 -23 -19 -40 0 -9
10 -14 19 -11 19 4 0 -3 12 -16 26 -12 14 -23 29 -23 32 -6 29 -18 51 -25 46
-5 -3 -9 1 -9 9 0 8 -11 31 -25 52 -15 20 -24 39 -21 42 2 3 -4 13 -15 24 -10
10 -19 26 -19 34 0 8 -5 15 -11 15 -5 0 -7 5 -4 10 3 6 -1 13 -9 16 -9 3 -13
10 -10 15 3 5 -2 12 -10 15 -9 3 -14 10 -11 14 3 5 -1 15 -9 23 -8 8 -13 17
-10 19 2 3 -2 11 -11 18 -8 7 -15 19 -15 26 0 8 -5 14 -11 14 -5 0 -7 5 -4 10
3 6 1 10 -5 10 -6 0 -8 5 -5 10 3 6 -1 13 -9 16 -9 3 -13 10 -10 15 3 5 0 9
-7 9 -7 0 -9 3 -6 7 4 3 -1 12 -11 20 -9 8 -11 12 -4 8 19 -10 14 6 -9 26 -11
9 -20 20 -20 23 3 20 0 27 -8 22 -5 -3 -12 1 -15 10 -4 10 -2 13 7 8 13 -8
-21 36 -38 48 -7 5 -7 8 0 8 6 0 1 7 -9 15 -13 10 -15 15 -6 15 9 0 7 5 -6 15
-10 8 -14 15 -9 15 6 0 6 3 0 8 -6 4 -21 20 -33 36 -20 26 -22 27 -22 7 0 -11
0 -24 1 -27 0 -4 -5 -11 -13 -15 -8 -6 -9 -12 -3 -16 15 -12 19 -47 5 -38 -9
5 -9 2 -3 -11 8 -17 10 -39 3 -46 -6 -7 -4 -81 3 -85 4 -3 3 -11 -4 -19 -6 -8
-7 -14 -2 -14 5 0 9 -20 8 -45 0 -25 -4 -45 -9 -45 -5 0 -2 -8 5 -17 12 -15
12 -16 -1 -8 -13 7 -13 6 -2 -7 9 -12 10 -18 2 -23 -8 -5 -8 -11 1 -21 9 -11
8 -14 -2 -14 -12 0 -12 -2 0 -9 7 -5 11 -13 7 -19 -3 -6 -3 -13 1 -15 5 -3 7
-27 7 -54 -1 -26 3 -56 8 -65 6 -13 5 -18 -4 -18 -9 0 -10 -3 -2 -8 6 -4 11
-22 12 -40 0 -18 6 -39 12 -47 8 -9 8 -15 0 -20 -6 -3 -8 -11 -4 -16 5 -9 13
-44 18 -89 2 -8 6 -23 10 -32 5 -10 6 -24 3 -32 -3 -8 -3 -17 1 -21 4 -4 7
-10 8 -13 1 -4 5 -27 10 -52 4 -25 7 -48 6 -52 -1 -5 2 -8 8 -8 5 0 10 -9 10
-20 0 -11 5 -20 11 -20 6 0 8 -8 4 -19 -3 -11 0 -21 8 -24 7 -3 12 -19 12 -40
-1 -23 4 -38 13 -42 8 -3 11 -12 8 -20 -3 -8 -1 -15 5 -15 6 0 8 -3 6 -8 -3
-4 3 -25 14 -46 10 -22 19 -46 19 -53 0 -8 5 -11 12 -7 6 4 8 3 5 -3 -4 -6 2
-31 13 -54 11 -24 20 -39 20 -34 1 14 39 -67 40 -83 0 -7 7 -15 15 -18 8 -4
15 -12 15 -20 0 -8 5 -14 11 -14 5 0 8 -4 5 -9 -3 -5 1 -11 9 -15 8 -3 15 -11
15 -18 0 -7 11 -22 25 -32 13 -10 22 -22 19 -27 -3 -5 0 -9 5 -9 6 0 11 -5 11
-11 0 -16 26 -39 35 -31 5 4 5 2 2 -4 -4 -6 6 -25 22 -42 16 -17 26 -34 23
-38 -4 -4 -2 -4 4 -1 12 7 46 -28 36 -38 -4 -4 -2 -5 4 -3 7 1 23 -10 38 -25
14 -15 26 -25 26 -22 0 3 11 -5 25 -17 57 -51 65 -58 70 -58 3 0 11 -4 18 -10
62 -50 78 -61 87 -55 5 3 10 -1 10 -10 0 -9 5 -13 10 -10 6 3 10 1 10 -5 0 -6
5 -8 10 -5 6 3 10 1 10 -5 0 -6 5 -8 10 -5 6 3 10 2 10 -2 0 -8 69 -43 87 -45
5 0 19 -9 32 -19 13 -10 27 -16 32 -13 5 3 9 0 9 -6 0 -6 4 -9 9 -5 5 3 15 -1
23 -8 7 -8 21 -13 31 -11 9 1 17 -2 17 -7 0 -6 5 -7 10 -4 6 3 10 1 10 -5 0
-7 7 -10 15 -6 8 3 19 -2 24 -12 8 -14 10 -14 11 -2 0 11 2 12 8 3 4 -7 21
-14 38 -16 16 -2 39 -9 52 -16 12 -6 27 -9 32 -6 5 3 12 0 15 -6 4 -5 13 -8
21 -5 7 3 16 1 19 -5 4 -5 10 -7 15 -4 5 3 11 1 14 -3 3 -5 17 -8 31 -7 14 2
25 -1 25 -6 0 -4 7 -6 15 -3 8 4 22 1 29 -5 10 -8 16 -9 21 -1 3 6 11 8 16 5
5 -4 9 1 9 9 0 9 -7 16 -15 16 -8 0 -15 7 -15 16 0 20 -25 45 -35 36 -4 -4 -6
-1 -3 7 2 8 -5 24 -16 36 -34 36 -66 79 -66 89 0 5 -9 17 -21 27 -11 9 -21 21
-22 26 -2 16 -32 63 -40 63 -5 0 -5 5 -2 10 3 6 1 10 -4 10 -6 0 -11 5 -11 11
0 6 -9 24 -21 40 -11 16 -21 38 -22 48 0 11 -5 17 -9 15 -4 -3 -8 4 -8 14 0
11 -6 25 -14 31 -8 7 -18 26 -21 42 -4 16 -10 29 -15 29 -4 0 -11 7 -14 16 -3
8 -2 12 4 9 6 -3 7 1 4 9 -3 9 -10 16 -16 16 -5 0 -8 6 -7 13 3 25 -1 38 -10
32 -6 -3 -8 4 -6 15 2 11 0 20 -5 20 -4 0 -6 10 -2 22 3 14 2 19 -6 14 -8 -5
-12 4 -12 27 0 18 -3 37 -7 41 -8 8 -13 29 -15 69 0 15 -4 27 -8 27 -4 0 -6
14 -5 30 1 17 -1 30 -4 30 -11 0 -7 80 4 80 6 0 7 3 0 8 -13 9 -15 52 -3 52 5
0 6 5 2 11 -8 14 -11 119 -4 119 3 0 6 12 7 28 2 25 7 58 14 92 2 8 9 18 14
22 6 5 5 8 -4 8 -11 0 -11 3 -1 15 7 8 9 15 4 15 -5 0 -4 4 3 8 7 4 15 23 18
42 3 19 10 39 16 45 5 5 9 17 9 27 0 10 5 18 11 18 5 0 9 8 7 18 -1 9 5 28 14
41 10 13 14 29 11 34 -3 6 -1 7 4 4 10 -6 25 14 27 36 1 4 7 11 14 16 8 5 14
12 14 17 1 22 22 53 31 47 6 -3 7 -1 3 5 -3 6 1 17 9 25 8 9 15 19 15 24 0 5
9 15 20 23 11 8 20 18 20 23 0 10 15 28 65 78 21 21 36 39 32 39 -3 0 6 12 20
28 14 15 29 26 34 24 5 -1 8 2 7 7 -2 5 9 20 24 34 15 14 24 28 20 33 -4 4 -2
4 5 1 6 -4 32 13 57 38 26 25 50 45 54 45 4 0 19 13 34 30 14 16 28 26 32 23
3 -4 6 -1 6 6 0 7 5 9 10 6 6 -3 10 -2 10 4 0 5 18 22 40 39 22 16 36 33 32
37 -4 5 0 6 9 2 9 -3 23 3 33 14 9 11 22 17 29 13 6 -4 9 -4 5 1 -9 9 51 57
62 50 5 -3 11 2 14 11 3 8 11 12 17 8 8 -4 9 -3 5 4 -4 7 -2 12 4 12 6 0 8 5
5 10 -3 6 -1 10 4 10 6 0 11 7 11 15 0 8 -9 15 -20 15 -11 0 -20 -4 -20 -9z"/>
</g>
</svg>
